<svg width="193" height="65" viewBox="0 0 193 65" fill="none" xmlns="http://www.w3.org/2000/svg">
<circle cx="160.31" cy="32.31" r="32.31" fill="url(#paint0_linear_364_336)"/>
<path d="M159.956 18.7258C152.365 18.967 150.109 24.3895 149.592 27.3271C150.265 26.2382 152.388 23.849 155.514 23.849C159.157 23.849 161.93 27.9146 163.622 29.1837C165.677 30.7254 169.808 32.7612 175.231 31.1107C179.555 29.7947 181.561 25.2041 181.999 23.0264C179.908 25.87 176.735 27.578 172.811 25.5645C170.108 24.178 168.087 18.4673 159.956 18.7258Z" fill="#FAFAFA"/>
<path d="M149.215 31.6276C141.625 31.8689 139.369 37.2913 138.852 40.2289C139.525 39.14 141.648 36.7509 144.774 36.7509C148.416 36.7509 151.189 40.8165 152.881 42.0855C154.937 43.6273 159.068 45.663 164.491 44.0126C168.815 42.6965 170.82 38.106 171.259 35.9283C169.167 38.7719 165.995 40.4799 162.07 38.4664C159.368 37.0798 157.347 31.3692 149.215 31.6276Z" fill="#FAFAFA"/>
<circle cx="32.31" cy="32.31" r="32.31" fill="url(#paint1_linear_364_336)"/>
<path fill-rule="evenodd" clip-rule="evenodd" d="M18.5003 14C15.9226 14 14.0156 16.2571 14.1008 18.7047C14.1827 21.0559 14.0764 24.1016 13.3098 26.585C12.5409 29.0761 11.2409 30.6506 9.11719 30.8529V33.1471C11.241 33.3494 12.5409 34.9239 13.3098 37.415C14.0764 39.8984 14.1827 42.9441 14.1009 45.2954C14.0156 47.7429 15.9226 50 18.5003 50H44.9138C47.4915 50 49.3985 47.7429 49.3133 45.2954C49.2314 42.9441 49.3377 39.8984 50.1042 37.415C50.8732 34.9239 52.1699 33.3494 54.2937 33.1471V30.8529C52.1699 30.6506 50.8732 29.0761 50.1042 26.585C49.3377 24.1016 49.2314 21.0559 49.3133 18.7047C49.3985 16.2571 47.4915 14 44.9138 14H18.5003ZM39.3732 36.1561C39.3732 39.5264 36.8584 41.5697 32.6851 41.5697H24.8143V22.4227H32.6443C36.1243 22.4227 38.408 24.3069 38.408 27.1996C38.408 29.2297 36.872 31.0475 34.9145 31.3659V31.4721C37.5788 31.7641 39.3732 33.6084 39.3732 36.1561ZM31.9103 24.8509H27.8593V30.5698H31.2714C33.9086 30.5698 35.363 29.5083 35.363 27.6108C35.363 25.8328 34.1125 24.8509 31.9103 24.8509ZM27.8593 32.8389V39.1416H32.0598C34.8057 39.1416 36.2602 38.0402 36.2602 35.9703C36.2602 33.9003 34.7649 32.8389 31.883 32.8389H27.8593Z" fill="#FAFAFA"/>
<defs>
<linearGradient id="paint0_linear_364_336" x1="140.011" y1="7.02024" x2="192.62" y2="67.2421" gradientUnits="userSpaceOnUse">
<stop stop-color="#7F92D5"/>
<stop offset="1" stop-color="#BF7FD5"/>
</linearGradient>
<linearGradient id="paint1_linear_364_336" x1="12.0105" y1="7.02024" x2="64.6201" y2="67.2421" gradientUnits="userSpaceOnUse">
<stop stop-color="#7F92D5"/>
<stop offset="1" stop-color="#BF7FD5"/>
</linearGradient>
</defs>
</svg>
