<svg width="94" height="94" viewBox="0 0 94 94" fill="none" xmlns="http://www.w3.org/2000/svg">
<circle cx="47" cy="47" r="47" fill="url(#paint0_linear_361_295)"/>
<path d="M75.8497 43.7833L49.2158 17.1507C47.6822 15.6164 45.1947 15.6164 43.6598 17.1507L38.1298 22.6821L45.1449 29.6972C46.7754 29.1462 48.6449 29.516 49.9441 30.8158C51.2512 32.1237 51.6177 34.0091 51.0527 35.6455L57.8149 42.4071C59.4514 41.8428 61.3381 42.2079 62.6446 43.5164C64.4703 45.3421 64.4703 48.3003 62.6446 50.1273C60.8176 51.9536 57.8594 51.9536 56.0318 50.1273C54.6589 48.753 54.319 46.7349 55.0154 45.0433L48.7086 38.7372V55.332C49.1534 55.5524 49.5736 55.8459 49.9441 56.2163C51.7697 58.042 51.7697 61.0002 49.9441 62.8278C48.1184 64.6528 45.1582 64.6528 43.3339 62.8278C41.5082 60.9995 41.5082 58.0413 43.3339 56.2163C43.7853 55.7655 44.3078 55.4243 44.8654 55.1959V38.4464C44.3078 38.218 43.7866 37.8801 43.3339 37.426C41.951 36.0438 41.6184 34.0137 42.3274 32.3155L35.4119 25.3986L17.1487 43.6598C15.6145 45.1953 15.6145 47.6829 17.1487 49.2171L43.784 75.8504C45.3175 77.3846 47.8044 77.3846 49.3399 75.8504L75.8497 49.3406C77.384 47.8064 77.384 45.3175 75.8497 43.7833Z" fill="#FAFAFA"/>
<defs>
<linearGradient id="paint0_linear_361_295" x1="17.4712" y1="10.212" x2="94" y2="97.8141" gradientUnits="userSpaceOnUse">
<stop stop-color="#7F92D5"/>
<stop offset="1" stop-color="#BF7FD5"/>
</linearGradient>
</defs>
</svg>
