<svg width="193" height="65" viewBox="0 0 193 65" fill="none" xmlns="http://www.w3.org/2000/svg">
<circle cx="160.31" cy="32.31" r="32.31" fill="url(#paint0_linear_364_335)"/>
<path d="M160.536 50.3288L147.674 46.6677L144.803 14.291L176.335 14.291L173.468 46.6697L160.544 50.3288H160.536ZM151.931 34.9068L152.367 40.6964L160.572 43.2489L168.631 40.9468L170.459 20.9085L150.669 20.9085L150.988 24.8443L166.192 24.8443L165.816 28.9315L155.845 28.9315L156.204 32.7925H165.493L164.944 38.0833L160.574 39.2949L156.131 38.0833L155.849 34.9129H151.931V34.9068Z" fill="#FAFAFA"/>
<circle cx="32.31" cy="32.31" r="32.31" fill="url(#paint1_linear_364_335)"/>
<path d="M50 50H14V14H50V50ZM26.2 42.464L23.464 44.152C23.8904 45.0879 24.5815 45.8784 25.452 46.426C26.3977 46.9679 27.4722 47.2443 28.562 47.226C29.1336 47.222 29.7031 47.155 30.26 47.026C31.4252 46.7393 32.413 45.9697 32.976 44.91C33.537 43.59 33.7438 42.1464 33.576 40.722C33.576 40.45 33.576 40.172 33.576 39.892C33.586 37.838 33.576 35.748 33.576 33.724C33.576 32.692 33.576 31.658 33.576 30.622V30.538H30.2C30.2 31.99 30.2 33.4387 30.2 34.884C30.2 36.338 30.2 37.79 30.2 39.246C30.2 39.618 30.2 39.982 30.2 40.332C30.3004 41.3303 30.228 42.3383 29.986 43.312C29.6955 43.8727 29.0976 44.2051 28.468 44.156C28.186 44.1552 27.9056 44.1127 27.636 44.03C27.0943 43.7468 26.6577 43.2975 26.39 42.748L26.324 42.636C26.262 42.53 26.22 42.456 26.2 42.456V42.464ZM38.098 42.064L35.352 43.638C35.5768 44.1299 35.8869 44.5782 36.268 44.962C36.362 45.066 36.468 45.178 36.566 45.302C37.9088 46.5029 39.6636 47.1385 41.464 47.076C43.7938 47.3056 45.9949 45.9678 46.864 43.794V43.778C47.0916 42.979 47.1279 42.1376 46.97 41.322L47.038 41.42C46.742 39.562 45.396 38.272 42.534 37.11C42.312 37.006 42.082 36.91 41.858 36.81C40.968 36.426 40.128 36.066 39.836 35.41C39.7059 35.0725 39.6822 34.7033 39.768 34.352C39.9751 33.6482 40.6542 33.1919 41.384 33.266C41.6068 33.266 41.8285 33.2984 42.042 33.362C42.7002 33.5838 43.2327 34.0755 43.506 34.714C45.056 33.7 45.056 33.7 46.138 33.026C45.8905 32.6035 45.5959 32.2103 45.26 31.854C44.2333 30.7534 42.7603 30.1819 41.26 30.302H41.02L39.964 30.436C38.9723 30.6586 38.075 31.1859 37.398 31.944C36.6021 32.9393 36.2437 34.2147 36.4047 35.4788C36.5656 36.743 37.2322 37.8879 38.252 38.652C39.128 39.2515 40.0727 39.7437 41.066 40.118C42.348 40.658 43.454 41.118 43.678 41.96C43.8135 42.4476 43.7137 42.9706 43.408 43.374C42.8651 43.9101 42.1141 44.1807 41.354 44.114C41.1447 44.1134 40.9357 44.1 40.728 44.074C39.597 43.8206 38.6341 43.0836 38.094 42.058L38.098 42.064Z" fill="#FAFAFA"/>
<defs>
<linearGradient id="paint0_linear_364_335" x1="140.011" y1="7.02024" x2="192.62" y2="67.2421" gradientUnits="userSpaceOnUse">
<stop stop-color="#7F92D5"/>
<stop offset="1" stop-color="#BF7FD5"/>
</linearGradient>
<linearGradient id="paint1_linear_364_335" x1="12.0105" y1="7.02024" x2="64.6201" y2="67.2421" gradientUnits="userSpaceOnUse">
<stop stop-color="#7F92D5"/>
<stop offset="1" stop-color="#BF7FD5"/>
</linearGradient>
</defs>
</svg>
