<svg width="196" height="94" viewBox="0 0 196 94" fill="none" xmlns="http://www.w3.org/2000/svg">
<circle cx="47" cy="47" r="47" fill="url(#paint0_linear_361_148)"/>
<path fill-rule="evenodd" clip-rule="evenodd" d="M79 46.9178C79 56.2612 64.4493 63.8355 46.5 63.8355C28.5507 63.8355 14 56.2612 14 46.9178C14 37.5743 28.5507 30 46.5 30C64.4493 30 79 37.5743 79 46.9178ZM26.6889 38.9041L23.1271 56.935H27.3567L28.2471 52.2603H32.2535C36.038 52.483 40.2673 49.3665 40.2673 44.0241C40.2673 40.9074 38.4864 39.1267 34.9248 38.9041H26.6889ZM30.2504 42.2432L29.1373 48.9214H29.1376H31.8086C33.812 48.6988 35.5929 48.031 35.8153 44.2465C35.8153 42.911 34.7024 42.2432 33.1442 42.2432H30.2504ZM43.0013 34.2297L39.4398 52.2603H43.6694L45.6727 42.2432H49.0118C50.5698 42.2432 50.5698 42.911 50.3474 44.0241L48.7891 52.2603H53.2411L54.7993 43.1336C55.2444 40.9074 53.9089 39.1267 50.3471 38.9041H46.3405L47.2309 34.2297H43.0013ZM56.5175 38.9041L52.956 56.935H57.1853L58.0758 52.2603H62.0826C65.8669 52.483 70.0964 49.3665 70.0964 44.0241C70.0964 40.9074 68.3155 39.1267 64.7537 38.9041H56.5175ZM60.0791 42.2432L58.9659 48.9214H58.9662H61.6375C63.6409 48.6988 65.4218 48.031 65.6442 44.2465C65.6442 42.911 64.5313 42.2432 62.9731 42.2432H60.0791Z" fill="#FAFAFA"/>
<circle cx="149" cy="47" r="47" fill="url(#paint1_linear_361_148)"/>
<path d="M116.123 61.0312H118.258V52.7467L121.563 59.9688C121.953 60.843 122.487 61.1523 123.533 61.1523C124.58 61.1523 125.094 60.843 125.484 59.9688L128.788 52.7467V61.0312H130.923V52.7603C130.923 51.9534 130.595 51.5633 129.918 51.3617C128.296 50.8641 127.208 51.2944 126.715 52.3703L123.472 59.498L120.331 52.3703C119.859 51.2944 118.751 50.8641 117.129 51.3617C116.451 51.5633 116.123 51.9534 116.123 52.7603V61.0312Z" fill="#FAFAFA"/>
<path d="M132.697 54.2883H134.831V58.8525C134.812 59.1004 134.912 59.6824 136.082 59.7005C136.679 59.7096 140.687 59.7005 140.724 59.7005V54.2661H142.863C142.873 54.2661 142.861 61.6771 142.861 61.7086C142.873 63.5363 140.554 63.9333 139.485 63.964H132.744V62.5527C132.755 62.5527 139.48 62.554 139.496 62.5524C140.87 62.4098 140.708 61.7386 140.708 61.5127V60.9625H136.171C134.059 60.9434 132.715 60.038 132.698 58.9964C132.697 58.8998 132.744 54.3339 132.697 54.2883Z" fill="#FAFAFA"/>
<path d="M144.51 61.0315H150.647C151.366 61.0315 152.064 60.8837 152.618 60.628C153.542 60.2113 153.993 59.6465 153.993 58.9066V57.3736C153.993 56.7683 153.48 56.2034 152.474 55.827C151.941 55.6251 151.284 55.5176 150.647 55.5176H148.061C147.199 55.5176 146.788 55.2621 146.686 54.6973C146.665 54.63 146.665 54.5761 146.665 54.509V53.5542C146.665 53.5003 146.665 53.4464 146.686 53.3793C146.788 52.949 147.014 52.8278 147.774 52.7606C147.835 52.7606 147.917 52.747 147.979 52.747H154.076V51.3486H148.081C147.219 51.3486 146.768 51.4024 146.357 51.5233C145.084 51.9134 144.53 52.5321 144.53 53.608V54.8318C144.53 55.7732 145.618 56.5801 147.445 56.7683C147.651 56.7817 147.856 56.7951 148.061 56.7951H150.278C150.36 56.7951 150.442 56.7951 150.504 56.8087C151.181 56.8626 151.468 56.9835 151.674 57.2256C151.797 57.3465 151.838 57.4677 151.838 57.6021V58.8259C151.838 58.9739 151.735 59.1623 151.53 59.3235C151.345 59.4849 151.038 59.5926 150.627 59.6195C150.545 59.6195 150.483 59.6329 150.401 59.6329H144.51V61.0315Z" fill="#FAFAFA"/>
<path d="M167.311 58.5974C167.311 60.0363 168.398 60.8433 170.595 61.0047C170.8 61.0181 171.006 61.0315 171.211 61.0315H176.774V59.6329H171.17C169.918 59.6329 169.445 59.3235 169.445 58.584V51.3486H167.311V58.5974Z" fill="#FAFAFA"/>
<path d="M155.355 58.6705V53.6842C155.355 52.4175 156.261 51.6492 158.05 51.4066C158.235 51.3798 158.441 51.3662 158.626 51.3662H162.678C162.884 51.3662 163.069 51.3798 163.275 51.4066C165.065 51.6492 165.97 52.4175 165.97 53.6842V58.6705C165.97 59.6982 165.585 60.2483 164.699 60.6067L166.802 62.472H164.323L162.622 60.9628L160.909 61.0695H158.626C158.235 61.0695 157.824 61.0154 157.371 60.8942C156.014 60.5304 155.355 59.8296 155.355 58.6705ZM157.66 58.5493C157.66 58.6167 157.68 58.684 157.701 58.7649C157.824 59.3444 158.38 59.6678 159.223 59.6678H161.162L159.381 58.0873H161.86L163.413 59.4657C163.7 59.3158 163.888 59.0864 163.954 58.7919C163.975 58.7246 163.975 58.6571 163.975 58.5898V53.8056C163.975 53.7517 163.975 53.6842 163.954 53.6167C163.831 53.0778 163.275 52.7679 162.452 52.7679H159.223C158.277 52.7679 157.66 53.1722 157.66 53.8056V58.5493Z" fill="#FAFAFA"/>
<path d="M178.653 49.0284C177.34 48.9934 176.338 49.1133 175.481 49.4685C175.237 49.5695 174.849 49.5721 174.809 49.872C174.943 50.0099 174.964 50.2157 175.07 50.3853C175.275 50.7107 175.62 51.1468 175.929 51.3755C176.265 51.6253 176.613 51.8925 176.974 52.1088C177.616 52.4937 178.333 52.7134 178.951 53.099C179.316 53.3262 179.678 53.6124 180.033 53.8689C180.209 53.9957 180.327 54.1929 180.556 54.2723C180.556 54.2602 180.556 54.2479 180.556 54.2357C180.436 54.0855 180.405 53.8791 180.294 53.7222C180.133 53.5634 179.971 53.4045 179.809 53.2455C179.335 52.6269 178.733 52.0835 178.093 51.6321C177.583 51.2721 176.44 50.7857 176.227 50.202C176.215 50.1898 176.202 50.1775 176.19 50.1652C176.552 50.1252 176.975 49.9965 177.309 49.9086C177.87 49.7608 178.372 49.799 178.951 49.652C179.212 49.5786 179.474 49.5051 179.735 49.4319C179.735 49.3829 179.735 49.3342 179.735 49.2852C179.442 48.9898 179.233 48.5991 178.914 48.3318C178.078 47.6326 177.166 46.934 176.227 46.3515C175.706 46.0285 175.063 45.8185 174.511 45.5447C174.325 45.4527 173.999 45.4048 173.876 45.2514C173.586 44.8881 173.428 44.4277 173.205 44.0046C172.736 43.1182 172.276 42.1501 171.861 41.2176C171.578 40.5817 171.393 39.9545 171.04 39.384C169.346 36.6465 167.522 34.9942 164.697 33.3701C164.096 33.0247 163.372 32.8883 162.607 32.7101C162.197 32.6857 161.786 32.6611 161.376 32.6367C161.125 32.5338 160.865 32.2326 160.63 32.0866C159.694 31.5056 157.293 30.2417 156.6 31.9033C156.162 32.9521 157.254 33.9756 157.644 34.507C157.919 34.8798 158.27 35.2978 158.465 35.7171C158.594 35.9926 158.616 36.2689 158.727 36.5605C158.998 37.2788 159.234 38.0602 159.585 38.724C159.762 39.0599 159.958 39.4137 160.182 39.7141C160.319 39.8984 160.555 39.9796 160.592 40.2642C160.362 40.5811 160.349 41.0729 160.219 41.4743C159.636 43.2814 159.856 45.5275 160.704 46.8649C160.965 47.2755 161.578 48.156 162.421 47.8183C163.158 47.5231 162.993 46.6084 163.204 45.8014C163.252 45.6184 163.223 45.484 163.316 45.3614C163.316 45.3735 163.316 45.3858 163.316 45.3981C163.54 45.8381 163.764 46.2781 163.988 46.7181C164.485 47.5048 165.367 48.327 166.115 48.8818C166.503 49.1695 166.808 49.667 167.309 49.8352C167.309 49.823 167.309 49.8109 167.309 49.7985C167.296 49.7985 167.284 49.7985 167.272 49.7985C167.175 49.6497 167.023 49.5881 166.899 49.4685C166.607 49.1872 166.282 48.8374 166.04 48.5151C165.36 47.6079 164.759 46.615 164.212 45.5814C163.95 45.088 163.723 44.5435 163.503 44.0412C163.418 43.8476 163.419 43.5548 163.242 43.4545C163 43.8225 162.645 44.1201 162.458 44.5546C162.16 45.2493 162.121 46.0964 162.01 46.9749C161.945 46.9979 161.974 46.9821 161.936 47.0115C161.416 46.8883 161.233 46.3625 161.04 45.9115C160.552 44.7708 160.461 42.9341 160.891 41.6211C161.002 41.2814 161.505 40.2114 161.301 39.8976C161.204 39.5844 160.884 39.4033 160.704 39.164C160.482 38.8683 160.261 38.4788 160.107 38.1373C159.707 37.2478 159.521 36.2494 159.1 35.3505C158.899 34.9207 158.558 34.4858 158.279 34.1037C157.969 33.6804 157.623 33.3687 157.383 32.8567C157.298 32.6749 157.182 32.3837 157.309 32.1967C157.349 32.0705 157.406 32.0179 157.533 31.9767C157.749 31.8127 158.352 32.0313 158.577 32.1233C159.176 32.3676 159.675 32.6002 160.182 32.9301C160.425 33.0887 160.671 33.3953 160.965 33.4802C161.077 33.4802 161.189 33.4802 161.301 33.4802C161.827 33.5989 162.415 33.5171 162.906 33.6635C163.773 33.9226 164.551 34.3256 165.257 34.7637C167.407 36.0982 169.166 37.998 170.369 40.2642C170.562 40.6291 170.646 40.9773 170.817 41.3644C171.16 42.1448 171.594 42.948 171.936 43.7112C172.277 44.4726 172.61 45.2411 173.093 45.8748C173.347 46.2079 174.327 46.3866 174.772 46.5715C175.084 46.7012 175.596 46.8363 175.891 47.0115C176.456 47.3464 177.004 47.745 177.533 48.1117C177.798 48.295 178.612 48.6971 178.653 49.0284Z" fill="#FAFAFA"/>
<path fill-rule="evenodd" clip-rule="evenodd" d="M161.973 35.0571C161.699 35.0522 161.505 35.0865 161.301 35.1304C161.301 35.1426 161.301 35.1549 161.301 35.167C161.313 35.167 161.326 35.167 161.338 35.167C161.469 35.4306 161.699 35.6002 161.861 35.8272C161.985 36.0839 162.109 36.3406 162.234 36.5971C162.246 36.585 162.259 36.5727 162.271 36.5606C162.502 36.4006 162.608 36.1445 162.607 35.7538C162.514 35.6581 162.501 35.538 162.42 35.4237C162.314 35.2715 162.107 35.1851 161.973 35.0571Z" fill="#FAFAFA"/>
<path fill-rule="evenodd" clip-rule="evenodd" d="M177.777 59.5928C177.777 60.5165 178.52 61.1389 179.351 61.1389C180.181 61.1389 180.924 60.5165 180.924 59.5928C180.924 58.6693 180.181 58.0469 179.351 58.0469C178.52 58.0469 177.777 58.6693 177.777 59.5928ZM180.572 59.5928C180.572 60.2937 180.026 60.8174 179.351 60.8174C178.667 60.8174 178.13 60.2937 178.13 59.5928C178.13 58.892 178.667 58.3682 179.351 58.3682C180.026 58.3682 180.572 58.892 180.572 59.5928ZM179.775 60.4752H180.127L179.611 59.7001C179.888 59.6712 180.097 59.5392 180.097 59.2177C180.097 58.859 179.867 58.7106 179.422 58.7106H178.721V60.4752H179.023V59.7124H179.305L179.775 60.4752ZM179.023 59.4651V58.958H179.372C179.552 58.958 179.77 58.991 179.77 59.1971C179.77 59.4443 179.573 59.4651 179.346 59.4651H179.023Z" fill="#FAFAFA"/>
<defs>
<linearGradient id="paint0_linear_361_148" x1="17.4712" y1="10.212" x2="94" y2="97.8141" gradientUnits="userSpaceOnUse">
<stop stop-color="#7F92D5"/>
<stop offset="1" stop-color="#BF7FD5"/>
</linearGradient>
<linearGradient id="paint1_linear_361_148" x1="119.471" y1="10.212" x2="196" y2="97.8141" gradientUnits="userSpaceOnUse">
<stop stop-color="#7F92D5"/>
<stop offset="1" stop-color="#BF7FD5"/>
</linearGradient>
</defs>
</svg>
