<svg width="193" height="65" viewBox="0 0 193 65" fill="none" xmlns="http://www.w3.org/2000/svg">
<circle cx="160.31" cy="32.31" r="32.31" fill="url(#paint0_linear_364_337)"/>
<path d="M155.453 13.9997L159.993 21.7009L164.533 13.9997H171.787L159.993 34.0078L148.199 13.9997H155.453Z" fill="#FAFAFA"/>
<path fill-rule="evenodd" clip-rule="evenodd" d="M154.915 13.9999L154.915 13.9996H138.001L159.994 52.0791L181.988 13.9996H165.074L159.996 22.7915L159.997 22.7939L165.076 13.9999H173.193L159.997 36.8472L146.801 13.9999H154.915Z" fill="#FAFAFA"/>
<circle cx="32.31" cy="32.31" r="32.31" fill="url(#paint1_linear_364_337)"/>
<g clip-path="url(#clip0_364_337)">
<path d="M31.7362 35.4067C33.8654 35.4067 35.5915 33.6575 35.5915 31.4997C35.5915 29.342 33.8654 27.5928 31.7362 27.5928C29.6069 27.5928 27.8809 29.342 27.8809 31.4997C27.8809 33.6575 29.6069 35.4067 31.7362 35.4067Z" fill="#FAFAFA"/>
<path d="M31.7358 39.5041C43.1609 39.5041 52.4227 35.9204 52.4227 31.4996C52.4227 27.0789 43.1609 23.4951 31.7358 23.4951C20.3107 23.4951 11.0488 27.0789 11.0488 31.4996C11.0488 35.9204 20.3107 39.5041 31.7358 39.5041Z" stroke="#FAFAFA" stroke-width="2"/>
<path d="M24.895 35.5018C30.6076 45.5288 38.3011 51.8655 42.0789 49.6551C45.8568 47.4447 44.2884 37.5243 38.5759 27.4973C32.8634 17.4703 25.1699 11.1337 21.392 13.344C17.6141 15.5544 19.1825 25.4748 24.895 35.5018Z" stroke="#FAFAFA" stroke-width="2"/>
<path d="M24.8956 27.4977C19.183 37.5247 17.6147 47.4451 21.3925 49.6554C25.1704 51.8658 32.8639 45.5292 38.5764 35.5022C44.289 25.4752 45.8574 15.5548 42.0795 13.3444C38.3016 11.134 30.6081 17.4707 24.8956 27.4977Z" stroke="#FAFAFA" stroke-width="2"/>
</g>
<defs>
<linearGradient id="paint0_linear_364_337" x1="140.011" y1="7.02024" x2="192.62" y2="67.2421" gradientUnits="userSpaceOnUse">
<stop stop-color="#7F92D5"/>
<stop offset="1" stop-color="#BF7FD5"/>
</linearGradient>
<linearGradient id="paint1_linear_364_337" x1="12.0105" y1="7.02024" x2="64.6201" y2="67.2421" gradientUnits="userSpaceOnUse">
<stop stop-color="#7F92D5"/>
<stop offset="1" stop-color="#BF7FD5"/>
</linearGradient>
<clipPath id="clip0_364_337">
<rect width="43.2545" height="39" fill="white" transform="translate(10.1094 12)"/>
</clipPath>
</defs>
</svg>
