<svg width="94" height="94" viewBox="0 0 94 94" fill="none" xmlns="http://www.w3.org/2000/svg">
<circle cx="47" cy="47" r="47" fill="url(#paint0_linear_361_241)"/>
<path d="M72.4144 50.8928C70.0072 50.9054 67.9151 51.488 66.1633 52.3492C65.5205 51.0701 64.8777 49.9302 64.7643 49.0943C64.6383 48.1191 64.487 47.5239 64.6383 46.3587C64.7895 45.1935 65.4701 43.5344 65.4575 43.4077C65.4449 43.2811 65.3062 42.6858 63.9199 42.6732C62.5336 42.6605 61.3363 42.9391 61.1976 43.3064C61.059 43.6737 60.7943 44.5096 60.6179 45.3708C60.3784 46.6373 57.8452 51.1587 56.3958 53.5271C55.9295 52.6025 55.5262 51.792 55.438 51.1461C55.312 50.1709 55.1607 49.5756 55.312 48.4104C55.4632 47.2452 56.1438 45.5861 56.1312 45.4595C56.1186 45.3328 55.9799 44.7376 54.5936 44.7249C53.2072 44.7122 52.01 44.9909 51.8713 45.3582C51.7327 45.7254 51.5814 46.5867 51.2916 47.4226C51.0017 48.2584 47.6367 55.8068 46.7545 57.7572C46.3007 58.7577 45.91 59.5556 45.6328 60.1002C45.6328 60.1002 45.6202 60.1382 45.5824 60.2016C45.3429 60.6702 45.2043 60.9235 45.2043 60.9235C45.2043 60.9235 45.2043 60.9235 45.2043 60.9361C45.0152 61.2781 44.8136 61.5947 44.7127 61.5947C44.6371 61.5947 44.4985 60.6828 44.738 59.4417C45.2421 56.82 46.4394 52.7419 46.4268 52.6025C46.4268 52.5266 46.6536 51.8173 45.6454 51.45C44.6623 51.0827 44.3094 51.6907 44.2212 51.6907C44.133 51.6907 44.07 51.906 44.07 51.906C44.07 51.906 45.1665 47.3212 41.9779 47.3212C39.9866 47.3212 37.2391 49.5123 35.878 51.488C35.021 51.9566 33.1935 52.9572 31.24 54.0337C30.4964 54.4516 29.7276 54.8696 29.0093 55.2622C28.9589 55.2115 28.9084 55.1482 28.858 55.0976C25.0015 50.9561 17.8681 48.0305 18.1706 42.4705C18.284 40.4441 18.9772 35.1248 31.8702 28.6657C42.482 23.4097 50.9261 24.8662 52.388 28.0957C54.4802 32.7058 47.8635 41.2674 36.8988 42.5085C32.7146 42.9771 30.5216 41.356 29.9671 40.7481C29.3874 40.1148 29.2991 40.0769 29.0849 40.2035C28.732 40.3935 28.9589 40.9634 29.0849 41.2927C29.4126 42.1539 30.7611 43.6737 33.0423 44.4209C35.0588 45.0795 39.9614 45.4468 45.8974 43.1418C52.5393 40.5581 57.7318 33.3771 56.2068 27.3612C54.6818 21.2566 44.5993 19.2429 35.0588 22.6498C29.3874 24.6762 23.237 27.8678 18.8133 32.0219C13.5578 36.9613 12.726 41.2547 13.0663 43.0531C14.2888 49.4363 23.048 53.5904 26.5517 56.668C26.3752 56.7693 26.2114 56.858 26.0727 56.934C24.3209 57.8079 17.6413 61.3161 15.9776 65.0269C14.0872 69.2317 16.2801 72.246 17.7295 72.6513C22.2288 73.9051 26.8541 71.6507 29.3369 67.9272C31.8198 64.2037 31.5173 59.3657 30.3704 57.1493C30.3578 57.124 30.3452 57.0986 30.32 57.0733C30.7737 56.8073 31.24 56.5287 31.6937 56.2627C32.5885 55.7308 33.4708 55.2369 34.227 54.8316C33.7984 56.0094 33.4834 57.4153 33.3321 59.4417C33.1431 61.8227 34.1135 64.9129 35.3864 66.1288C35.9536 66.6607 36.6215 66.6734 37.0501 66.6734C38.5372 66.6734 39.2052 65.4322 39.9488 63.9631C40.8562 62.1646 41.6754 60.0749 41.6754 60.0749C41.6754 60.0749 40.6545 65.7235 43.4272 65.7235C44.4355 65.7235 45.4563 64.4063 45.91 63.7351C45.91 63.7478 45.91 63.7478 45.91 63.7478C45.91 63.7478 45.9353 63.7098 45.9857 63.6211C46.0865 63.4565 46.1495 63.3551 46.1495 63.3551C46.1495 63.3551 46.1495 63.3425 46.1495 63.3298C46.5528 62.6206 47.4602 61.0121 48.8088 58.3398C50.548 54.8949 52.2242 50.5888 52.2242 50.5888C52.2242 50.5888 52.3754 51.64 52.8922 53.3878C53.1946 54.4136 53.8248 55.5408 54.3289 56.63C53.9256 57.1999 53.6736 57.5166 53.6736 57.5166C53.6736 57.5166 53.6736 57.5166 53.6862 57.5292C53.3585 57.9598 53.0056 58.4285 52.6149 58.8844C51.2412 60.5308 49.6028 62.4179 49.3759 62.9625C49.1112 63.6084 49.1743 64.077 49.6784 64.457C50.0439 64.7356 50.6992 64.7736 51.3672 64.7356C52.6023 64.647 53.4719 64.343 53.9004 64.153C54.5684 63.9124 55.3498 63.5451 56.0808 63.0005C57.4293 62 58.2485 60.5688 58.1729 58.6818C58.1351 57.6432 57.7948 56.6047 57.3789 55.6295C57.5049 55.4522 57.6183 55.2749 57.7444 55.0976C59.8743 51.9693 61.5253 48.5371 61.5253 48.5371C61.5253 48.5371 61.6765 49.5883 62.1933 51.336C62.4453 52.2226 62.9621 53.1851 63.4158 54.1223C61.4119 55.7561 60.1768 57.6559 59.7357 58.8971C58.9417 61.2021 59.5592 62.2406 60.7313 62.4813C61.2606 62.5952 62.0168 62.3419 62.5714 62.1013C63.2771 61.8733 64.1089 61.4807 64.9029 60.8981C66.2515 59.8976 67.5496 58.5044 67.474 56.6174C67.4362 55.7561 67.2093 54.9076 66.8942 54.0844C68.5957 53.3751 70.7886 52.9825 73.5865 53.3118C79.5856 54.021 80.7703 57.7825 80.5434 59.3657C80.3166 60.9488 79.0562 61.81 78.6403 62.076C78.2244 62.3419 78.0858 62.4306 78.1236 62.6206C78.174 62.8992 78.3757 62.8865 78.7286 62.8359C79.2201 62.7472 81.8793 61.5567 81.9928 58.6438C82.1818 54.9202 78.6529 50.8548 72.4144 50.8928ZM26.1358 66.5721C24.1445 68.7504 21.3718 69.5737 20.1745 68.8771C18.889 68.1299 19.3931 64.9129 21.8381 62.6079C23.3253 61.2021 25.2409 59.8976 26.5138 59.0997C26.8037 58.9224 27.2322 58.6691 27.749 58.3525C27.8372 58.3018 27.8876 58.2765 27.8876 58.2765C27.9884 58.2131 28.0892 58.1498 28.1901 58.0865C29.0849 61.3794 28.2279 64.2797 26.1358 66.5721ZM40.6293 56.668C39.9362 58.3651 38.4868 62.7092 37.6046 62.4686C36.8484 62.2659 36.3821 58.973 37.4534 55.7181C37.9953 54.0844 39.1422 52.1339 39.8101 51.374C40.894 50.1582 42.0913 49.7529 42.3812 50.2469C42.7467 50.8928 41.0578 55.6042 40.6293 56.668ZM52.5897 62.4179C52.2998 62.5699 52.0226 62.6712 51.8965 62.5952C51.8083 62.5446 52.0226 62.3419 52.0226 62.3419C52.0226 62.3419 53.5223 60.7208 54.1147 59.9862C54.455 59.5556 54.8583 59.049 55.2868 58.4791C55.2868 58.5298 55.2868 58.5931 55.2868 58.6438C55.2868 60.5815 53.4215 61.886 52.5897 62.4179ZM61.8152 60.3029C61.6009 60.1509 61.6387 59.6443 62.3571 58.0612C62.6344 57.4406 63.2897 56.4021 64.4114 55.4015C64.5375 55.8068 64.6257 56.1994 64.6131 56.5667C64.6005 59.011 62.8612 59.9229 61.8152 60.3029Z" fill="#FAFAFA"/>
<defs>
<linearGradient id="paint0_linear_361_241" x1="17.4712" y1="10.212" x2="94" y2="97.8141" gradientUnits="userSpaceOnUse">
<stop stop-color="#7F92D5"/>
<stop offset="1" stop-color="#BF7FD5"/>
</linearGradient>
</defs>
</svg>
