<svg width="24" height="24" viewBox="0 0 24 24" fill="none" xmlns="http://www.w3.org/2000/svg">
<path d="M17.669 18.2678C17.0201 18.2758 16.3755 18.1615 15.769 17.9308C15.2256 17.7194 14.7346 17.3926 14.33 16.9728C13.9314 16.5438 13.6236 16.0387 13.425 15.4878C13.2069 14.8783 13.0989 14.235 13.106 13.5878C13.1014 12.9517 13.2125 12.3201 13.434 11.7238C13.6405 11.1677 13.9583 10.6597 14.368 10.2308C14.7788 9.80716 15.2696 9.4693 15.812 9.23676C16.3995 8.98825 17.0322 8.86463 17.67 8.87376C18.3555 8.85912 19.0343 9.01005 19.649 9.31376C20.1977 9.59518 20.6735 10.0001 21.039 10.4968C21.4077 11.004 21.6737 11.5785 21.822 12.1878C21.9838 12.8355 22.0416 13.5049 21.993 14.1708H15.562C15.5364 14.8032 15.7532 15.4216 16.168 15.8998C16.6038 16.282 17.1736 16.4755 17.752 16.4378C18.2063 16.4484 18.6527 16.3181 19.03 16.0648C19.3295 15.8819 19.5594 15.6042 19.683 15.2758H21.838C21.5938 16.2045 21.0319 17.0183 20.25 17.5758C19.4761 18.0544 18.5786 18.2951 17.669 18.2678ZM17.6 10.7238C17.264 10.7111 16.9299 10.7797 16.626 10.9238C16.3884 11.0436 16.1775 11.2103 16.006 11.4138C15.8551 11.5986 15.7435 11.8123 15.678 12.0418C15.6203 12.2329 15.583 12.4297 15.567 12.6288H19.549C19.5203 12.1102 19.3226 11.6153 18.986 11.2198C18.6135 10.8681 18.111 10.6883 17.6 10.7238ZM7.97 18.0358H2V5.73076H7.8C8.3373 5.72606 8.8736 5.77801 9.4 5.88576C9.84587 5.97281 10.2707 6.14531 10.651 6.39376C10.9945 6.63219 11.2702 6.95576 11.451 7.33276C11.6507 7.7869 11.7463 8.27991 11.731 8.77576C11.7527 9.32436 11.6073 9.86661 11.314 10.3308C10.9931 10.7738 10.5594 11.1229 10.058 11.3418C10.7393 11.512 11.3382 11.9185 11.748 12.4888C12.1287 13.0756 12.3213 13.7646 12.3 14.4638C12.3145 15.0229 12.1916 15.5771 11.942 16.0778C11.7117 16.5218 11.3776 16.9036 10.968 17.1908C10.5434 17.4862 10.0692 17.703 9.568 17.8308C9.04477 17.9682 8.50598 18.0374 7.965 18.0368L7.97 18.0358ZM4.71 12.5528V15.9428H7.6C7.85541 15.9455 8.11033 15.9197 8.36 15.8658C8.58857 15.8216 8.80611 15.7326 9 15.6038C9.18672 15.481 9.33834 15.3118 9.44 15.1128C9.5579 14.8631 9.61349 14.5886 9.602 14.3128C9.65047 13.8009 9.45215 13.2965 9.068 12.9548C8.65353 12.6694 8.15651 12.5288 7.654 12.5548L4.71 12.5528ZM4.71 7.82776V10.7028H7.452C7.87616 10.7195 8.29433 10.5984 8.644 10.3578C8.97362 10.084 9.14719 9.66543 9.108 9.23876C9.11645 8.99384 9.06423 8.75063 8.956 8.53076C8.85824 8.35302 8.71413 8.20511 8.539 8.10276C8.35458 7.9934 8.15091 7.92041 7.939 7.88776C7.70824 7.8445 7.47377 7.82407 7.239 7.82676L4.71 7.82776ZM20.051 7.77176H15.061V6.55676H20.051V7.77076V7.77176Z" fill="#232323"/>
</svg>
